<?xml version="1.0" encoding="utf-8"?>
<!-- Generator: Adobe Illustrator 21.0.0, SVG Export Plug-In . SVG Version: 6.00 Build 0)  -->
<svg version="1.1" id="Layer_1" xmlns="http://www.w3.org/2000/svg" xmlns:xlink="http://www.w3.org/1999/xlink" x="0px" y="0px"
	 viewBox="0 0 90 60" style="enable-background:new 0 0 90 60;" xml:space="preserve">
<style type="text/css">
	.st0{clip-path:url(#SVGID_2_);fill:#DDAB9E;}
</style>
<g>
	<g>
		<defs>
			<rect id="SVGID_1_" x="0" y="0" width="90" height="60"/>
		</defs>
		<clipPath id="SVGID_2_">
			<use xlink:href="#SVGID_1_"  style="overflow:visible;"/>
		</clipPath>
		<path class="st0" d="M19.9,40C13.1,55.1,0,60,0,60c22.1,0,40-17.9,40-40C40,9,31,0,20,0S0,9,0,20C0,31,8.9,40,19.9,40 M50,20
			c0,11,8.9,20,19.9,20C63.1,55.1,50,60,50,60c22.1,0,40-17.9,40-40C90,9,81,0,70,0S50,9,50,20"/>
	</g>
</g>
</svg>
