<svg xmlns="http://www.w3.org/2000/svg" viewBox="0 0 133.46 118.73"><title>Ресурс 1</title><path d="M122.68,35.77a10.77,10.77,0,0,0-7.42,18.6L90.77,69.89,69.9,21.4a10.79,10.79,0,1,0-4.38-.14L44.31,69.92,19.24,54.28a10.9,10.9,0,1,0-3.81,3l6.14,45.9-.35,15.52h92.51l.35-15.5,4.78-46.6a10.54,10.54,0,0,0,3.82.71,10.79,10.79,0,0,0,0-21.57Zm-60.1-25a5.47,5.47,0,1,1,5.47,5.47A5.47,5.47,0,0,1,62.58,10.79ZM10.79,53.06a5.48,5.48,0,1,1,3.89-1.63l0,0v.05A5.45,5.45,0,0,1,10.79,53.06ZM46.72,77.69l20.94-48L88.35,77.72,113,62.13,109,100.4H26.56L21.41,61.91Zm61.81,35.72H26.66l.18-7.69h81.87ZM122.68,52a5.47,5.47,0,1,1,5.46-5.46A5.47,5.47,0,0,1,122.68,52Z"/><circle cx="68.05" cy="89.02" r="2.22"/></svg>