<?xml version="1.0" encoding="utf-8"?>
<!-- Generator: Adobe Illustrator 21.0.0, SVG Export Plug-In . SVG Version: 6.00 Build 0)  -->
<svg version="1.1" id="Слой_1" xmlns="http://www.w3.org/2000/svg" xmlns:xlink="http://www.w3.org/1999/xlink" x="0px" y="0px"
	 viewBox="0 0 11.4 20.9" xml:space="preserve">
	<path class="st0" d="M11.3,6.7V6.5H8.5c-0.1,0-0.2,0-0.2,0c0-0.1-0.1-0.1,0-0.2v0c0-0.5,0-0.5,0.6-0.5h2.5V0.1l0,0
	C9.9,0,8.4,0,7,0.1H6.9L6.2,0.2C5.8,0.2,5.4,0.3,5,0.4c-1,0.3-1.8,1-2.2,1.9C2.3,3.3,2.2,4.5,2.3,5.7c0,0.2,0,0.4,0,0.6s0,0.2,0,0.3
	s-0.1,0-0.2,0H0v5.9h0.7c0.4,0,0.9,0,1.3,0c0.1,0,0.2,0,0.2,0c0,0.1,0.1,0.1,0,0.2c0,2.1,0,4.2,0,6.2v2h6V19c0-2.1,0-4.2,0-6.3
	c0-0.1,0-0.1,0-0.2c0,0,0.1,0,0.2,0H11v-0.1c0-0.1,0-0.2,0-0.4s0.1-0.5,0.1-0.7c0-0.1,0-0.2,0-0.5C11.1,9.4,11.2,8.1,11.3,6.7
	C11.4,6.8,11.4,6.8,11.3,6.7z M7,11.3v0.3c0,0.1,0,0.2,0,0.4v1.3c0,2.1,0,4.1,0,6.1c0,0.2,0,0.3-0.1,0.3c-0.1,0.1-0.2,0.1-0.3,0.1
	H5.2H3.6c-0.1,0-0.2,0-0.2,0s0-0.1,0-0.2c0-1.9,0-3.8,0-5.7v-2.5H1.4c-0.1,0-0.2,0-0.2,0s0-0.1,0-0.2c0-1,0-2,0-3.3
	c0-0.1,0-0.1,0-0.2c0,0,0.1,0,0.2,0c0.4,0,0.8,0,1.3,0h0.7V6.7c0-0.6,0-1.1,0-1.7V4.9c0-0.7,0.1-1.4,0.4-2c0.3-0.7,1-1.3,1.7-1.5
	C6,1.3,6.7,1.2,7.3,1.2c0.5,0,1.1,0,1.7,0H10c0.1,0,0.1,0,0.2,0s0,0.1,0,0.2c0,1.1,0,2.1,0,3c0,0.1,0,0.2,0,0.2s-0.1,0-0.2,0
	c-0.5,0-0.9,0-1.4,0H8.5C7.8,4.5,7.2,5,7.1,5.7v0.2c0,0.2,0,0.3,0,0.5s0,0.4,0,0.7v0.4h0.3h0.4h0.5c0.6,0,1.1,0,1.7,0
	c0.1,0,0.2,0,0.2,0c0,0,0,0.1,0,0.2C10.1,8.6,10,9.4,10,10.2c0,0.2,0,0.4,0,0.5V11c0,0.1,0,0.2-0.1,0.2c-0.1,0-0.1,0.1-0.2,0L7,11.3
	L7,11.3z"/>
</svg>
