<?xml version="1.0" encoding="utf-8"?>
<!-- Generator: Adobe Illustrator 21.0.0, SVG Export Plug-In . SVG Version: 6.00 Build 0)  -->
<svg version="1.1" id="Слой_1" xmlns="http://www.w3.org/2000/svg" xmlns:xlink="http://www.w3.org/1999/xlink" x="0px" y="0px"
	 viewBox="0 0 18 17.9" style="enable-background:new 0 0 18 17.9;" xml:space="preserve">
<style type="text/css">
	.st0{fill:#CFAA9D;}
</style>
<title>иконки электрастайл</title>
<path class="st0" d="M17.9,4.4C17.9,4.9,18,5.4,18,6v6c0,0.7,0,1.4-0.2,2c-0.3,1.3-1.2,2.4-2.3,3.1c-1.3,0.7-2.9,1-4.4,0.9H6.8
	c-1,0-1.9,0-2.9-0.3c-1.8-0.5-3.3-1.9-3.8-3.8C0,13.3,0,12.6,0,11.9V6.4C0,5.6,0,4.8,0.2,4C0.8,1.4,3.4,0,6,0h5.6
	c0.6,0,1.3,0,1.9,0.1C14.8,0.4,15.9,1,16.8,2C17.3,2.7,17.7,3.5,17.9,4.4z M16.6,9c0-1.3,0-2.7,0-4c0-0.9-0.4-1.7-1-2.4
	c-0.8-0.8-1.8-1.2-2.9-1.2c-2.4,0-4.9,0-7.3,0C4.6,1.4,3.7,1.6,3,2.1C2,2.6,1.4,3.7,1.4,4.8c0,2.8,0,5.6,0,8.4c0,0.5,0.1,1,0.4,1.4
	c0.7,1.3,2.2,2.1,3.7,2.1h6.8c0.4,0,0.8,0,1.2-0.1c1.8-0.3,3.1-1.7,3.2-3.5C16.6,11.6,16.6,10.3,16.6,9z"/>
<path class="st0" d="M13.2,8.7c-0.1,2.3-2.1,4.1-4.4,4c-2.2-0.1-3.9-1.8-4-4c0.1-2.3,2.1-4.1,4.4-4C11.4,4.8,13.1,6.5,13.2,8.7z
	 M6.2,8.7c-0.1,1.5,1.1,2.8,2.6,2.8c0.1,0,0.2,0,0.3,0c1.5,0.1,2.8-1,2.9-2.5c0-0.1,0-0.2,0-0.3c-0.1-1.6-1.5-2.8-3-2.7
	C7.4,6,6.3,7.2,6.2,8.7L6.2,8.7z"/>
<path class="st0" d="M13.7,5c-0.5-0.1-0.8-0.4-0.9-0.9c0.1-0.4,0.4-0.8,0.8-0.9c0.5,0.1,0.8,0.4,0.9,0.9C14.5,4.6,14.2,4.9,13.7,5z"
	/>
</svg>
