<svg xmlns="http://www.w3.org/2000/svg" viewBox="0 0 104.78 173.75"><title>Ресурс 4</title><path d="M104.78,87.13v70.2c0,9.68-6.68,16.4-16.4,16.4q-35.86,0-71.72,0C6.78,173.73,0,166.92,0,157Q0,87,0,16.92C0,8.2,5,1.92,13.14.29A19,19,0,0,1,16.91,0H88c10,0,16.74,6.78,16.74,16.76Q104.79,51.94,104.78,87.13ZM95.25,33.75H9.58v95H95.25ZM9.5,138.48v1.33c0,5.86,0,11.72,0,17.59a6.46,6.46,0,0,0,6.86,6.82H88.68c4,0,6.6-2.62,6.6-6.67q0-8.79,0-17.58v-1.49ZM95.29,24V16.72c0-4.62-2.61-7.2-7.26-7.2H21.16c-1.82,0-3.64,0-5.46,0a6.23,6.23,0,0,0-6.09,5.51c-.23,2.94,0,5.92,0,9Z"/><path d="M52.41,155.15c-2.63,0-5.26,0-7.88,0-3,0-5.13-2-5.1-4.8s2.07-4.67,5.06-4.68q7.88,0,15.76,0c3,0,5.13,2,5.1,4.79s-2.09,4.67-5.06,4.69C57.66,155.16,55,155.15,52.41,155.15Z"/></svg>