<svg xmlns="http://www.w3.org/2000/svg" viewBox="0 0 160.15 139.97"><title>Ресурс 3</title><path d="M156.75,63.48,122.14,46.8l1-40.63a6,6,0,0,0-9.46-5.07L80.58,24.41,46.44,1.09a6,6,0,0,0-9.38,5.36l2.68,40.7L3.3,65.53h0a6,6,0,0,0,0,10.74L40.54,94.82,39.1,133.73a6,6,0,0,0,9.46,5.14l32.26-22.68,36.1,21.33a6,6,0,0,0,9.06-5.46l-1.88-40L157,74.18a6,6,0,0,0-.26-10.7ZM7.17,73.21Zm111.4,12.08a6,6,0,0,0-3.13,5.56l1.72,36.83L83.75,107.94a6,6,0,0,0-6.51.25L47.88,128.84l1.31-35.37a6,6,0,0,0-3.32-5.6l-34.09-17L45.14,54.05a6,6,0,0,0,3.3-5.76L46,11.19,77.21,32.52a6,6,0,0,0,6.85,0l30.39-21.39-1,37.16a6,6,0,0,0,3.4,5.56L148.47,69Z"/><path d="M67.85,59H68c3.33,0,6.27-2.16,8.75-6.44a3.34,3.34,0,0,0-5.79-3.35c-1.42,2.46-2.53,3.11-3,3.11h0c-.84,0-2.38-1.63-3.13-3a3.35,3.35,0,0,0-5.9,3.16C59.29,53.13,62.54,58.92,67.85,59Z"/><path d="M95.63,58.9h.13c3.33,0,6.27-2.17,8.75-6.45a3.34,3.34,0,0,0-5.79-3.35c-1.42,2.46-2.53,3.11-3,3.11h0c-.84,0-2.38-1.63-3.14-3a3.34,3.34,0,0,0-5.89,3.16C87.07,53,90.32,58.8,95.63,58.9Z"/><path d="M114.94,72.72c-1.34-.92-1.82-3.73-1.84-5a3.39,3.39,0,0,0-3.38-3.3,3.35,3.35,0,0,0-3.31,3.38,16.93,16.93,0,0,0,1.18,5.75c-23.4,19.51-45.15,5.93-52.26.37a11.85,11.85,0,0,0,1.05-7,3.35,3.35,0,0,0-6.65.75c.15,1.23.13,2.87-.71,3.62-1.21,1.09-4.05.89-5.24.62a3.35,3.35,0,0,0-1.51,6.52,17.06,17.06,0,0,0,3.6.38,14,14,0,0,0,4.19-.62c4.4,3.55,16.61,12.13,32.09,12.13,9.11,0,19.35-3,29.78-11.7a9,9,0,0,0,4.32,1,13.57,13.57,0,0,0,4.69-.92,3.34,3.34,0,0,0-2.31-6.27C117.47,73,115.88,73.36,114.94,72.72Z"/></svg>