<?xml version="1.0" encoding="utf-8"?>
<!-- Generator: Adobe Illustrator 21.0.0, SVG Export Plug-In . SVG Version: 6.00 Build 0)  -->
<svg version="1.1" id="Слой_1" xmlns="http://www.w3.org/2000/svg" xmlns:xlink="http://www.w3.org/1999/xlink" x="0px" y="0px"
	 viewBox="0 0 23.8 14.8" style="enable-background:new 0 0 23.8 14.8;" xml:space="preserve">
<style type="text/css">
	.st0{fill:#CFAA9D;}
</style>
<title>иконки электрастайл</title>
<path class="st0" d="M23.3,1.1c-0.2,0-0.3-0.1-0.5,0h-1c-1,0-2,0-2.9,0l0,0c-0.4,0-0.8,0.3-1,0.6l-0.4,0.9l-0.4,0.8
	c-0.5,1-1,2-1.7,2.9c-0.2,0.3-0.4,0.5-0.6,0.8c-0.1,0.1-0.3,0.2-0.4,0.2c-0.2-0.1-0.3-0.2-0.3-0.4C14,6.7,14,6.4,14,6.2
	c0-0.6,0-1.2,0-1.9V3.6c0-0.2,0-0.3,0-0.5c0-0.4,0-0.8,0-1.2c0-0.6-0.3-1.1-0.7-1.5C12.8,0.1,12.2,0,11.6,0h0C11,0,10.3,0,9.7,0.1
	C8.9,0.3,8.2,0.7,7.6,1.2L7.4,1.3l0.2,0.1l0.2,0.1C7.9,1.6,8,1.6,8.1,1.7c0.6,0.2,1,0.7,1,1.3v0.2c0.1,0.8,0.1,1.5,0.1,2.3
	c0,0.6-0.1,1.1-0.3,1.7c0,0.1-0.1,0.2-0.2,0.2c-0.1,0-0.3,0-0.4-0.1C8,6.9,7.6,6.6,7.4,6.1L7.3,5.9C6.5,4.7,5.8,3.3,5.2,1.9
	C5.1,1.4,4.6,1,4,1H1C0.6,1,0.3,1.1,0,1.4l0,0V2l0.6,1.2C1,4.1,1.4,5.1,1.9,6c0.8,1.7,1.8,3.3,2.9,4.8c1.2,1.8,3,3,5.1,3.5
	c1,0.2,2,0.2,3,0.2c0.7,0,1-0.3,1.1-0.9s0.1-1,0.3-1.5c0-0.1,0.1-0.2,0.2-0.4c0.2-0.2,0.3-0.3,0.4-0.3l0,0c0.2,0,0.4,0.1,0.7,0.4
	c0.4,0.4,0.8,0.8,1.2,1.3c0.5,0.7,1.3,1.3,2.1,1.6h3.9l1.1-0.6v-0.7v-0.1c-0.5-1-1.2-1.9-2-2.7c-0.2-0.2-0.4-0.4-0.6-0.6
	s-0.5-0.5-0.7-0.8c-0.5-0.6-0.6-0.9-0.2-1.6c0.4-0.6,0.8-1.1,1.2-1.7s0.9-1.2,1.3-1.9c0.3-0.4,0.5-0.9,0.7-1.3l0.3-0.6V2.2V2
	C23.8,1.7,23.8,1.3,23.3,1.1z M18.8,8.3c-0.1,0.6,0.1,1.1,0.5,1.5c0.3,0.4,0.6,0.7,1,1s0.6,0.6,0.9,1s0.7,0.8,1,1.2l0.3,0.4
	c0,0.1,0.1,0.1,0.1,0.2h-0.8c-0.9,0-1.8,0-2.6,0c-0.3-0.1-0.6-0.2-0.8-0.4c-0.3-0.3-0.7-0.7-1-1l-0.5-0.6l-0.1-0.1
	c-0.2-0.3-0.5-0.5-0.7-0.7c-0.3-0.2-0.7-0.4-1-0.4c-0.1,0-0.2,0-0.3,0c-0.5,0.1-0.9,0.5-1.2,1c-0.3,0.6-0.5,1.3-0.5,2
	c-0.3,0-0.6,0-0.9,0c-0.7,0-1.3,0-2-0.2c-1.3-0.4-2.5-1.1-3.4-2.1c-0.8-0.9-1.5-1.9-2.1-2.9C3.7,6.9,2.9,5.6,2.3,4.2L1.8,3.3
	C1.6,3,1.5,2.8,1.4,2.5L1.3,2.2h0.2h2.4c0.1,0,0.3,0.1,0.3,0.2c0.6,1.5,1.3,2.9,2.2,4.3c0.4,0.6,0.8,1.1,1.4,1.6
	c0.3,0.2,0.8,0.3,1.2,0.2c0.4-0.1,0.7-0.3,0.8-0.7c0.2-0.5,0.4-1,0.5-1.5c0.1-0.8,0.1-1.6,0.1-2.5c0.1-0.9-0.2-1.8-0.7-2.5
	c0.6-0.2,1.3-0.2,1.9-0.1c0.4,0.1,0.7,0.1,1,0.2c0.2,0,0.4,0.2,0.4,0.5c0,0,0,0,0,0c0,0.5,0,1,0,1.5s0,0.8,0,1.2c0,0.2,0,0.4,0,0.5
	c0,0.3,0,0.6,0,0.8V6c0,0.5,0.1,1.1,0.3,1.5c0.2,0.5,0.6,0.8,1.1,0.9c0.5,0.1,1-0.1,1.3-0.4c0.8-0.7,1.4-1.6,1.9-2.6
	c0.3-0.6,0.6-1.3,1-2c0.2-0.4,0.3-0.7,0.5-1.1c0,0,0-0.1,0.1-0.1h3.6l-0.2,0.3c-0.1,0.3-0.3,0.6-0.5,0.9c-0.4,0.5-0.7,1.1-1.1,1.6
	c-0.4,0.5-0.8,1.1-1.1,1.7C19.2,7.2,18.9,7.8,18.8,8.3z"/>
</svg>
